<svg width="50" height="50" viewBox="0 0 50 50" fill="none" xmlns="http://www.w3.org/2000/svg">
<mask id="mask0_7_18" style="mask-type:luminance" maskUnits="userSpaceOnUse" x="0" y="0" width="50" height="50">
<path d="M0 0H50V50H0V0Z" fill="white"/>
</mask>
<g mask="url(#mask0_7_18)">
<mask id="mask1_7_18" style="mask-type:luminance" maskUnits="userSpaceOnUse" x="0" y="0" width="50" height="50">
<path d="M7.66667 0H42.3333C44.3663 0 46.316 0.807292 47.7535 2.24479C49.191 3.68403 50 5.63368 50 7.66667V42.3333C50 44.3663 49.191 46.316 47.7535 47.7552C46.316 49.1927 44.3663 50 42.3333 50H7.66667C5.63194 50 3.68229 49.1927 2.24479 47.7552C0.807292 46.316 0 44.3663 0 42.3333V7.66667C0 5.63368 0.807292 3.68403 2.24479 2.24479C3.68229 0.807292 5.63194 0 7.66667 0Z" fill="white"/>
</mask>
<g mask="url(#mask1_7_18)">
<path d="M0 0H50V50H0V0Z" fill="#E4E2DD"/>
</g>
</g>
<path d="M32.4514 13.3333C33.1076 13.3333 33.6944 13.4132 34.2083 13.5695C34.7257 13.7274 34.9861 13.8195 34.9861 13.8472V21.0208H32.2361C30.4583 21.0208 29.1754 21.4792 28.3889 22.3958C27.6007 23.309 27.2083 24.6667 27.2083 26.4722V36.5625H18.6667V13.8889H25.6667L26.2222 17.3264C26.7361 16.0122 27.5504 15.0191 28.6667 14.3472C29.7865 13.6719 31.0486 13.3333 32.4514 13.3333Z" fill="#45254E"/>
</svg>
